<?xml version="1.0" encoding="UTF-8" standalone="no"?>
<!-- Generator: Adobe Illustrator 16.0.0, SVG Export Plug-In . SVG Version: 6.00 Build 0)  -->

<svg
   xmlns:dc="http://purl.org/dc/elements/1.1/"
   xmlns:cc="http://creativecommons.org/ns#"
   xmlns:rdf="http://www.w3.org/1999/02/22-rdf-syntax-ns#"
   xmlns:svg="http://www.w3.org/2000/svg"
   xmlns="http://www.w3.org/2000/svg"
   xmlns:sodipodi="http://sodipodi.sourceforge.net/DTD/sodipodi-0.dtd"
   xmlns:inkscape="http://www.inkscape.org/namespaces/inkscape"
   version="1.1"
   id="Layer_1"
   x="0px"
   y="0px"
   width="2100px"
   height="2100px"
   viewBox="-794 -794 2100 2100"
   enable-background="new -794 -794 2100 2100"
   xml:space="preserve"
   inkscape:version="0.91 r13725"
   sodipodi:docname="facebook.svg"><metadata
     id="metadata9"><rdf:RDF><cc:Work
         rdf:about=""><dc:format>image/svg+xml</dc:format><dc:type
           rdf:resource="http://purl.org/dc/dcmitype/StillImage" /></cc:Work></rdf:RDF></metadata><defs
     id="defs7" /><sodipodi:namedview
     pagecolor="#ffffff"
     bordercolor="#666666"
     borderopacity="1"
     objecttolerance="10"
     gridtolerance="10"
     guidetolerance="10"
     inkscape:pageopacity="0"
     inkscape:pageshadow="2"
     inkscape:window-width="666"
     inkscape:window-height="480"
     id="namedview5"
     showgrid="false"
     inkscape:zoom="0.11238095"
     inkscape:cx="1050"
     inkscape:cy="1050"
     inkscape:window-x="0"
     inkscape:window-y="0"
     inkscape:window-maximized="0"
     inkscape:current-layer="Layer_1" /><path
     fill="#0E1F5B"
     d="M93.198-660.547c79.933-76.112,193.632-101.819,300.883-105.024c113.432-1.021,226.82-0.403,340.251-0.358  c0.446,119.662,0.486,239.368-0.044,359.025c-73.307-0.129-146.665,0.179-219.969-0.129c-46.482-2.896-94.22,32.339-102.67,78.42  c-1.111,80.068-0.398,160.183-0.358,240.253c107.519,0.442,215.036-0.133,322.55,0.27c-7.87,115.829-22.243,231.135-39.098,345.988  c-94.97,0.89-189.99-0.089-284.959,0.492c-0.845,341.631,0.446,683.261-0.665,1024.892c-141.058,0.578-282.204-0.267-423.261,0.399  c-2.672-341.676,0.219-683.524-1.466-1025.245c-68.819-0.717-137.677,0.493-206.491-0.579  c0.262-114.854,0.089-229.705,0.129-344.519c68.768-0.843,137.586,0.177,206.362-0.488c2.088-111.656-2.095-223.443,2.179-335.004  C-6.534-510.508,27.139-599.519,93.198-660.547z"
     id="path3"
     style="fill:#ffffff;fill-opacity:1" /></svg>