<?xml version="1.0" encoding="UTF-8" standalone="no"?>
<!-- Created with Inkscape (http://www.inkscape.org/) -->

<svg
   xmlns:dc="http://purl.org/dc/elements/1.1/"
   xmlns:cc="http://creativecommons.org/ns#"
   xmlns:rdf="http://www.w3.org/1999/02/22-rdf-syntax-ns#"
   xmlns:svg="http://www.w3.org/2000/svg"
   xmlns="http://www.w3.org/2000/svg"
   xmlns:sodipodi="http://sodipodi.sourceforge.net/DTD/sodipodi-0.dtd"
   xmlns:inkscape="http://www.inkscape.org/namespaces/inkscape"
   width="155.73659mm"
   height="153.32913mm"
   viewBox="0 0 551.82255 543.2922"
   id="svg2"
   version="1.1"
   inkscape:version="0.91 r13725"
   sodipodi:docname="logo2.svg">
  <defs
     id="defs4" />
  <sodipodi:namedview
     id="base"
     pagecolor="#00ffff"
     bordercolor="#666666"
     borderopacity="1.0"
     inkscape:pageopacity="0"
     inkscape:pageshadow="2"
     inkscape:zoom="0.5177252"
     inkscape:cx="132.19944"
     inkscape:cy="255.05886"
     inkscape:document-units="px"
     inkscape:current-layer="layer1"
     showgrid="false"
     inkscape:window-width="1172"
     inkscape:window-height="892"
     inkscape:window-x="459"
     inkscape:window-y="92"
     inkscape:window-maximized="0"
     fit-margin-top="0"
     fit-margin-left="0"
     fit-margin-right="0"
     fit-margin-bottom="0" />
  <metadata
     id="metadata7">
    <rdf:RDF>
      <cc:Work
         rdf:about="">
        <dc:format>image/svg+xml</dc:format>
        <dc:type
           rdf:resource="http://purl.org/dc/dcmitype/StillImage" />
        <dc:title></dc:title>
      </cc:Work>
    </rdf:RDF>
  </metadata>
  <g
     inkscape:label="Layer 1"
     inkscape:groupmode="layer"
     id="layer1"
     transform="translate(-162.03564,-228.53201)">
    <path
       style="opacity:1;fill:#ffffff;fill-opacity:1;fill-rule:evenodd;stroke:#000000;stroke-width:0.99921262;stroke-miterlimit:4;stroke-dasharray:none;stroke-opacity:0"
       d="m 332.22275,229.03162 c -32.64736,0 -62.9332,10.10237 -87.91796,27.33984 a 174.28572,174.28572 0 0 0 -81.76954,147.45703 174.28572,174.28572 0 0 0 174.28711,174.28516 174.28572,174.28572 0 0 0 69.72657,-14.6543 l 115.59375,190.2793 a 26.558491,26.558491 0 0 0 5.49414,9.04297 l 0.63086,1.03906 0.21484,-0.13086 a 26.558491,26.558491 0 0 0 18.62305,7.63477 26.558491,26.558491 0 0 0 26.55859,-26.5586 26.558491,26.558491 0 0 0 -1.17578,-7.80859 l 0.13672,-0.082 -0.40625,-0.66797 a 26.558491,26.558491 0 0 0 -5.9336,-9.76758 L 450.49229,535.8324 A 174.28572,174.28572 0 0 0 511.10752,403.82849 174.28572,174.28572 0 0 0 354.34971,230.6117 c -7.22809,-1.03335 -14.61334,-1.58008 -22.12696,-1.58008 z m -15.21289,1.74804 a 174.28572,174.28572 0 0 0 -43.71093,10.9336 c 13.68707,-5.6716 28.36764,-9.42936 43.71093,-10.9336 z m 21.76758,20.97461 a 150.95403,150.95403 0 0 1 146.54297,115.42969 c 0.60365,5.54131 0.92383,11.16709 0.92383,16.86914 0,85.07021 -68.95128,154.02344 -154.02149,154.02344 -54.62902,0 -102.60824,-28.437 -129.95312,-71.31445 A 150.95403,150.95403 0 0 1 187.82432,402.70935 150.95403,150.95403 0 0 1 338.77744,251.75427 Z m 148.1582,122.62305 a 150.95403,150.95403 0 0 1 2.79688,28.33203 150.95403,150.95403 0 0 1 -53.21484,114.81445 l -41.3711,25.13282 A 150.95403,150.95403 0 0 1 338.77744,553.66248 150.95403,150.95403 0 0 1 205.46299,473.2992 c 28.06329,39.78512 74.37658,65.77734 126.75976,65.77734 85.61022,0 155.02149,-69.41322 155.02149,-155.02344 0,-3.25087 -0.11133,-6.47454 -0.3086,-9.67578 z"
       id="path4140"
       inkscape:connector-curvature="0" />
    <g
       transform="matrix(1.5055622,0,0,1.5055622,-170.95909,-211.69174)"
       style="font-style:normal;font-weight:normal;font-size:60px;line-height:125%;font-family:sans-serif;letter-spacing:0px;word-spacing:0px;fill:#000000;fill-opacity:1;stroke:none;stroke-width:1px;stroke-linecap:butt;stroke-linejoin:miter;stroke-opacity:1"
       id="flowRoot4175">
      <path
         d="m 288.05273,411.64405 q 0,7.87353 -2.7832,13.80615 -2.7832,5.93262 -7.9834,9.15527 -5.16357,3.22266 -11.86523,3.22266 -6.62842,0 -11.82861,-3.18603 -5.2002,-3.18604 -8.05665,-9.08204 -2.85644,-5.93261 -2.89306,-13.62304 l 0,-2.63672 q 0,-7.87354 2.81982,-13.84277 2.85645,-6.00586 8.02002,-9.1919 5.2002,-3.22266 11.86524,-3.22266 6.66504,0 11.82861,3.22266 5.20019,3.18604 8.02002,9.1919 2.85644,5.96923 2.85644,13.80615 l 0,2.38037 z m -11.13281,-2.41699 q 0,-8.38623 -3.00293,-12.74414 -3.00293,-4.35791 -8.56933,-4.35791 -5.52979,0 -8.53272,4.32128 -3.00293,4.28467 -3.03955,12.59766 l 0,2.6001 q 0,8.1665 3.00293,12.6709 3.00293,4.50439 8.64258,4.50439 5.52978,0 8.49609,-4.32129 2.96631,-4.35791 3.00293,-12.6709 l 0,-2.60009 z"
         style="font-style:normal;font-variant:normal;font-weight:bold;font-stretch:normal;font-size:75px;line-height:265.00000954%;font-family:Roboto;-inkscape-font-specification:'Roboto Bold';text-align:center;text-anchor:middle;fill:#ffffff"
         id="path4416"
         inkscape:connector-curvature="0" />
      <path
         d="m 306.94922,418.30909 0,18.78662 -10.98633,0 0,-53.32031 20.80078,0 q 6.00586,0 10.54688,2.19726 4.57763,2.19727 7.03125,6.26221 2.45361,4.02832 2.45361,9.19189 0,7.83692 -5.3833,12.37793 -5.34668,4.5044 -14.83154,4.5044 l -9.63135,0 z m 0,-8.89893 9.81445,0 q 4.35791,0 6.62842,-2.05078 2.30713,-2.05078 2.30713,-5.85937 0,-3.91846 -2.30713,-6.33545 -2.30713,-2.417 -6.37207,-2.49024 l -10.0708,0 0,16.73584 z"
         style="font-style:normal;font-variant:normal;font-weight:bold;font-stretch:normal;font-size:75px;line-height:265.00000954%;font-family:Roboto;-inkscape-font-specification:'Roboto Bold';text-align:center;text-anchor:middle;fill:#ffffff"
         id="path4418"
         inkscape:connector-curvature="0" />
      <path
         d="m 376.38281,413.9878 -21.09375,0 0,14.28223 24.75586,0 0,8.82568 -35.74219,0 0,-53.32031 35.66895,0 0,8.89892 -24.68262,0 0,12.70752 21.09375,0 0,8.60596 z"
         style="font-style:normal;font-variant:normal;font-weight:bold;font-stretch:normal;font-size:75px;line-height:265.00000954%;font-family:Roboto;-inkscape-font-specification:'Roboto Bold';text-align:center;text-anchor:middle;fill:#ffffff"
         id="path4420"
         inkscape:connector-curvature="0" />
      <path
         d="m 429.84961,437.09571 -10.98633,0 -21.38672,-35.08301 0,35.08301 -10.98633,0 0,-53.32031 10.98633,0 21.42334,35.15625 0,-35.15625 10.94971,0 0,53.32031 z"
         style="font-style:normal;font-variant:normal;font-weight:bold;font-stretch:normal;font-size:75px;line-height:265.00000954%;font-family:Roboto;-inkscape-font-specification:'Roboto Bold';text-align:center;text-anchor:middle;fill:#ffffff"
         id="path4422"
         inkscape:connector-curvature="0" />
    </g>
    <g
       transform="translate(276.2083,-2.3801704e-8)"
       style="font-style:normal;font-weight:normal;font-size:60px;line-height:125%;font-family:sans-serif;letter-spacing:0px;word-spacing:0px;fill:#d1d1ff;fill-opacity:1;stroke:none;stroke-width:1px;stroke-linecap:butt;stroke-linejoin:miter;stroke-opacity:1"
       id="flowRoot4183">
      <path
         d="m 285.23291,437.09571 -10.98633,0 0,-22.85156 -21.42334,0 0,22.85156 -10.98633,0 0,-53.32031 10.98633,0 0,21.60644 21.42334,0 0,-21.60644 10.98633,0 0,53.32031 z"
         style="font-style:normal;font-variant:normal;font-weight:bold;font-stretch:normal;font-size:75px;line-height:265.00000954%;font-family:Roboto;-inkscape-font-specification:'Roboto Bold';text-align:center;text-anchor:middle;fill:#d1d1ff;fill-opacity:1"
         id="path4425"
         inkscape:connector-curvature="0" />
      <path
         d="m 325.55273,426.10938 -19.26269,0 -3.66211,10.98633 -11.68213,0 19.84863,-53.32031 10.18067,0 19.95849,53.32031 -11.68213,0 -3.69873,-10.98633 z m -16.29638,-8.89893 13.33008,0 -6.70166,-19.95849 -6.62842,19.95849 z"
         style="font-style:normal;font-variant:normal;font-weight:bold;font-stretch:normal;font-size:75px;line-height:265.00000954%;font-family:Roboto;-inkscape-font-specification:'Roboto Bold';text-align:center;text-anchor:middle;fill:#d1d1ff;fill-opacity:1"
         id="path4427"
         inkscape:connector-curvature="0" />
      <path
         d="m 387.11279,419.33448 q -0.62256,8.60596 -6.37207,13.5498 -5.71289,4.94385 -15.08789,4.94385 -10.2539,0 -16.1499,-6.88476 -5.85938,-6.92139 -5.85938,-18.96973 l 0,-3.25928 q 0,-7.69043 2.70997,-13.5498 2.70996,-5.85938 7.72705,-8.97217 5.05371,-3.14942 11.71875,-3.14942 9.22851,0 14.86816,4.94385 5.63965,4.94385 6.51856,13.8794 l -10.98633,0 q -0.40284,-5.16358 -2.89307,-7.47071 -2.45361,-2.34375 -7.50732,-2.34375 -5.49317,0 -8.23975,3.95508 -2.70996,3.91846 -2.7832,12.19483 l 0,4.02832 q 0,8.64257 2.60009,12.63427 2.63672,3.9917 8.27637,3.9917 5.09033,0 7.58057,-2.30713 2.52685,-2.34375 2.89306,-7.21435 l 10.98633,0 z"
         style="font-style:normal;font-variant:normal;font-weight:bold;font-stretch:normal;font-size:75px;line-height:265.00000954%;font-family:Roboto;-inkscape-font-specification:'Roboto Bold';text-align:center;text-anchor:middle;fill:#d1d1ff;fill-opacity:1"
         id="path4429"
         inkscape:connector-curvature="0" />
      <path
         d="m 410.87988,415.70899 -5.71289,6.15234 0,15.23438 -10.98633,0 0,-53.32031 10.98633,0 0,24.16992 4.83399,-6.62842 13.58642,-17.5415 13.51319,0 -18.93311,23.69384 19.48242,29.62647 -13.07373,0 -13.69629,-21.38672 z"
         style="font-style:normal;font-variant:normal;font-weight:bold;font-stretch:normal;font-size:75px;line-height:265.00000954%;font-family:Roboto;-inkscape-font-specification:'Roboto Bold';text-align:center;text-anchor:middle;fill:#d1d1ff;fill-opacity:1"
         id="path4431"
         inkscape:connector-curvature="0" />
    </g>
  </g>
</svg>
